<?xml version="1.0" encoding="UTF-8"?>
<!DOCTYPE svg PUBLIC "-//W3C//DTD SVG 1.1//EN" "http://www.w3.org/Graphics/SVG/1.1/DTD/svg11.dtd">
<svg version="1.1" xmlns="http://www.w3.org/2000/svg" xmlns:xlink="http://www.w3.org/1999/xlink" x="0" y="0" width="600" height="600" viewBox="0, 0, 600, 600">
  <g id="Layer_1">
    <path d="M299.883,535.873 C265.981,535.873 233.721,529.187 204.512,517.221 C203.808,516.869 203.221,516.635 202.518,516.4 C202.4,516.4 202.283,516.4 202.283,516.283 C198.177,514.758 193.719,513.937 189.144,513.937 C184.1,513.937 179.291,514.875 174.95,516.752 L76.412,553 L102.337,449.3 C102.337,443.083 100.577,437.217 97.762,432.173 C97.762,432.173 97.762,432.173 97.762,432.173 C96.823,430.648 95.885,429.123 94.829,427.833 C70.312,391.115 56.118,347.477 56.118,300.671 C55.883,170.46 165.096,65 299.883,65 C434.669,65 543.883,170.46 543.883,300.437 C543.883,430.531 434.669,535.873 299.883,535.873 z" fill="#FFFFFF"/>
  </g>
  <g id="Layer_2" display="none" opacity="0.852">
    <g>
      <path d="M300,535.437 C165.307,535.437 56.117,430.028 56.117,300 C56.117,169.972 165.307,64.563 300,64.563 C434.693,64.563 543.883,169.972 543.883,300 C543.883,430.028 434.693,535.437 300,535.437 z" fill="#FFFFFF"/>
      <path d="M300,535.437 C165.307,535.437 56.117,430.028 56.117,300 C56.117,169.972 165.307,64.563 300,64.563 C434.693,64.563 543.883,169.972 543.883,300 C543.883,430.028 434.693,535.437 300,535.437 z" fill-opacity="0" stroke="#000000" stroke-width="1"/>
    </g>
  </g>
  <g id="Layer_3">
    <path d="M390.625,214.633 C387.996,206.752 380.775,201.5 372.233,201.5 L227.767,201.5 C219.225,201.5 212.004,206.752 209.375,214.633 L181.8,286.867 L181.8,385.367 C181.8,392.588 187.712,398.5 194.933,398.5 L208.067,398.5 C215.288,398.5 221.2,392.588 221.2,385.367 L221.2,378.8 L378.8,378.8 L378.8,385.367 C378.8,392.588 384.712,398.5 391.933,398.5 L405.067,398.5 C412.288,398.5 418.2,392.588 418.2,385.367 L418.2,286.867 L390.625,214.633 z M227.767,339.4 C216.609,339.4 208.067,330.864 208.067,319.7 C208.067,308.536 216.609,300 227.767,300 C238.925,300 247.467,308.536 247.467,319.7 C247.467,330.864 238.925,339.4 227.767,339.4 z M372.233,339.4 C361.075,339.4 352.533,330.864 352.533,319.7 C352.533,308.536 361.075,300 372.233,300 C383.391,300 391.933,308.536 391.933,319.7 C391.933,330.864 383.391,339.4 372.233,339.4 z M208.067,273.733 L227.767,221.2 L372.233,221.2 L391.933,273.733 L208.067,273.733 z" fill="#000000"/>
  </g>
</svg>
