<?xml version="1.0" encoding="UTF-8"?>
<!DOCTYPE svg PUBLIC "-//W3C//DTD SVG 1.1//EN" "http://www.w3.org/Graphics/SVG/1.1/DTD/svg11.dtd">
<svg version="1.1" xmlns="http://www.w3.org/2000/svg" xmlns:xlink="http://www.w3.org/1999/xlink" x="0" y="0" width="500" height="500" viewBox="0, 0, 1000, 1000">
  <g id="Layer_1">
    <path d="M126.066,259.657 C179.752,332.844 195.366,433.687 163.079,518.905 C155.89,537.893 146.92,555.184 138.254,571.909 C130.017,587.775 122.252,602.76 116.687,617.84 C86.36,700.113 128.812,806.164 207.522,844.801 C247.396,864.377 294.018,869.543 343.397,875.013 C383.533,879.467 425.031,884.078 465.701,896.81 C477.176,900.404 488.651,904.732 500.01,909.752 C511.37,904.732 522.845,900.394 534.309,896.81 C574.98,884.078 616.478,879.467 656.614,875.013 C705.982,869.543 752.615,864.377 792.488,844.801 C871.188,806.164 913.64,700.113 883.313,617.85 L883.313,617.84 C877.748,602.75 869.973,587.754 861.746,571.878 C853.08,555.163 844.12,537.883 836.921,518.905 C804.644,433.676 820.269,332.844 873.934,259.657 C839.981,230.157 807.83,198.499 777.817,164.997 C763.744,177.31 746.945,187.171 728.009,194.025 C679.605,211.546 620.669,207.941 574.194,184.614 C547.649,171.285 523.453,153.187 500.01,128.906 C476.558,153.187 452.351,171.285 425.806,184.614 C379.352,207.941 320.426,211.536 272.001,194.025 C253.076,187.171 236.256,177.31 222.183,164.997 C192.17,198.499 160.019,230.157 126.066,259.657 M500.01,1000 L481.504,990.474 C468.321,983.684 454.876,978.13 441.546,973.959 C408.348,963.563 372.467,959.592 334.479,955.369 C280.385,949.374 224.446,943.171 171.892,917.371 C56.337,860.646 -3.689,710.676 40.838,589.892 C48.152,570.044 57.469,552.072 66.481,534.687 C74.445,519.345 81.948,504.862 87.481,490.275 C113.921,420.493 94.649,335.82 40.607,284.367 L7.136,252.489 L43.185,223.566 C97.961,179.626 148.209,129.734 192.537,75.283 L234.433,23.809 L260.946,84.652 C269.235,103.682 286.494,113.292 299.52,118.008 C327.301,128.078 362.647,125.867 389.537,112.359 C416.951,98.6 441.84,76.3 467.86,42.169 L500.01,-0 L532.151,42.169 C558.171,76.3 583.049,98.6 610.463,112.359 C637.342,125.846 672.678,128.078 700.49,118.008 C713.506,113.292 730.776,103.682 739.065,84.652 L765.567,23.809 L807.474,75.283 C851.78,129.713 902.029,179.605 956.815,223.566 L992.864,252.489 L959.403,284.367 C905.361,335.82 886.09,420.493 912.529,490.265 C918.052,504.841 925.565,519.334 933.509,534.676 C942.531,552.061 951.848,570.033 959.173,589.902 L959.173,589.892 C1003.689,710.676 943.674,860.646 828.108,917.371 C775.554,943.171 719.626,949.374 665.531,955.369 C627.533,959.592 591.663,963.563 558.454,973.959 C545.145,978.13 531.7,983.684 518.506,990.474 z" fill="#F2F2F2"/>
    <path d="M420.655,679.141 C420.655,643.123 405.921,625.12 376.463,625.12 C369.746,625.12 363.668,626.367 358.219,628.861 C352.759,631.355 348.075,634.866 344.187,639.382 C340.289,643.909 337.281,649.243 335.175,655.395 C333.079,661.567 332.021,668.379 332.021,675.861 C332.021,684.129 333.111,691.852 335.29,699.02 C337.47,706.188 340.561,712.465 344.533,717.841 C348.515,723.227 353.22,727.471 358.68,730.594 C364.14,733.707 370.218,735.268 376.925,735.268 C383.631,735.268 389.667,733.895 395.054,731.181 C400.43,728.446 405.02,724.621 408.845,719.717 C412.67,714.802 415.583,708.881 417.616,701.944 C419.638,695.006 420.655,687.409 420.655,679.141 M492.92,674.457 C492.92,690.993 490.038,706.429 484.264,720.765 C478.49,735.111 470.473,747.539 460.172,758.061 C449.892,768.592 437.642,776.85 423.463,782.855 C409.274,788.859 393.765,791.867 376.925,791.867 C358.051,791.867 341.18,788.346 326.299,781.335 C311.408,774.325 298.812,764.149 288.531,750.819 C278.23,737.479 270.36,721.152 264.901,701.818 C259.441,682.494 256.716,660.592 256.716,636.102 C256.716,607.263 260.258,581.117 267.363,557.643 C274.447,534.18 284.591,514.112 297.764,497.429 C310.936,480.746 326.875,467.846 345.591,458.719 C364.297,449.602 385.339,445.043 408.729,445.043 C434.603,445.043 454.723,448.082 469.069,454.16 L469.069,515.904 C452.072,506.232 433.513,501.401 413.403,501.401 C400.933,501.401 389.625,503.832 379.502,508.653 C369.358,513.494 360.671,520.348 353.419,529.234 C346.178,538.121 340.477,548.841 336.349,561.385 C332.22,573.939 329.998,587.929 329.684,603.365 L331.088,603.365 C346.985,581.39 370.448,570.397 401.478,570.397 C415.352,570.397 427.906,572.891 439.13,577.869 C450.353,582.867 459.952,589.92 467.896,599.037 C475.849,608.164 482.001,619.115 486.371,631.9 C490.741,644.685 492.92,658.874 492.92,674.457" fill="#FFFFFF"/>
    <path d="M696.145,679.141 C696.145,643.123 681.411,625.12 651.953,625.12 C645.236,625.12 639.158,626.367 633.709,628.861 C628.249,631.355 623.565,634.866 619.677,639.382 C615.779,643.909 612.771,649.243 610.665,655.395 C608.569,661.567 607.511,668.379 607.511,675.861 C607.511,684.129 608.6,691.852 610.78,699.02 C612.96,706.188 616.051,712.465 620.023,717.841 C624.005,723.227 628.71,727.471 634.17,730.594 C639.63,733.707 645.718,735.268 652.414,735.268 C659.121,735.268 665.157,733.895 670.544,731.181 C675.92,728.446 680.51,724.621 684.334,719.717 C688.159,714.802 691.073,708.881 693.106,701.944 C695.128,695.006 696.145,687.409 696.145,679.141 M768.41,674.457 C768.41,690.993 765.528,706.429 759.754,720.765 C753.98,735.111 745.963,747.539 735.662,758.061 C725.382,768.592 713.132,776.85 698.953,782.855 C684.764,788.859 669.255,791.867 652.414,791.867 C633.541,791.867 616.669,788.346 601.789,781.335 C586.898,774.325 574.302,764.149 564.021,750.819 C553.72,737.479 545.85,721.152 540.39,701.818 C534.931,682.494 532.206,660.592 532.206,636.102 C532.206,607.263 535.748,581.117 542.853,557.643 C549.937,534.18 560.081,514.112 573.254,497.429 C586.426,480.746 602.365,467.846 621.081,458.719 C639.787,449.602 660.829,445.043 684.219,445.043 C710.093,445.043 730.213,448.082 744.559,454.16 L744.559,515.904 C727.562,506.232 709.003,501.401 688.893,501.401 C676.423,501.401 665.115,503.832 654.992,508.653 C644.848,513.494 636.161,520.348 628.909,529.234 C621.668,538.121 615.967,548.841 611.839,561.385 C607.71,573.939 605.488,587.929 605.174,603.365 L606.578,603.365 C622.475,581.39 645.938,570.397 676.967,570.397 C690.842,570.397 703.396,572.891 714.62,577.869 C725.843,582.867 735.442,589.92 743.385,599.037 C751.339,608.164 757.491,619.115 761.861,631.9 C766.23,644.685 768.41,658.874 768.41,674.457" fill="#FFFFFF"/>
    <path d="M510.678,330.213 C510.678,373.377 490.558,394.954 450.339,394.954 C411.314,394.954 391.811,373.88 391.811,331.722 L391.811,248.726 L424.276,248.726 L424.276,332.12 C424.276,355.374 433.362,366.995 451.544,366.995 C469.379,366.995 478.308,355.772 478.308,333.325 L478.308,248.726 L510.678,248.726 z" fill="#FFFFFF"/>
    <path d="M535.327,386.944 L535.327,354.867 C541.132,359.751 547.451,363.408 554.263,365.839 C561.085,368.281 567.959,369.507 574.918,369.507 C578.994,369.507 582.557,369.13 585.596,368.396 C588.635,367.663 591.171,366.646 593.215,365.347 C595.248,364.047 596.767,362.507 597.763,360.736 C598.769,358.965 599.272,357.036 599.272,354.972 C599.272,352.164 598.475,349.659 596.861,347.458 C595.269,345.247 593.068,343.214 590.301,341.338 C587.524,339.473 584.234,337.66 580.43,335.931 C576.626,334.192 572.508,332.421 568.096,330.618 C556.883,325.944 548.51,320.223 542.987,313.474 C537.486,306.736 534.73,298.583 534.73,289.026 C534.73,281.543 536.228,275.109 539.236,269.733 C542.243,264.357 546.33,259.925 551.507,256.456 C556.694,252.977 562.688,250.42 569.5,248.785 C576.312,247.14 583.532,246.333 591.15,246.333 C598.632,246.333 605.266,246.784 611.05,247.674 C616.825,248.575 622.159,249.969 627.031,251.845 L627.031,281.805 C624.621,280.139 622.001,278.672 619.172,277.394 C616.332,276.126 613.408,275.078 610.401,274.239 C607.393,273.401 604.396,272.783 601.43,272.385 C598.454,271.976 595.625,271.787 592.963,271.787 C589.285,271.787 585.942,272.133 582.934,272.835 C579.927,273.537 577.391,274.522 575.316,275.79 C573.241,277.069 571.648,278.578 570.506,280.359 C569.374,282.13 568.798,284.111 568.798,286.322 C568.798,288.722 569.437,290.881 570.705,292.788 C571.973,294.685 573.786,296.487 576.123,298.195 C578.46,299.893 581.3,301.569 584.643,303.204 C587.975,304.839 591.748,306.526 595.971,308.266 C601.703,310.676 606.869,313.233 611.449,315.937 C616.028,318.64 619.947,321.69 623.227,325.106 C626.497,328.512 629.002,332.41 630.741,336.78 C632.481,341.15 633.35,346.253 633.35,352.069 C633.35,360.076 631.82,366.814 628.781,372.263 C625.742,377.712 621.624,382.114 616.405,385.488 C611.197,388.862 605.13,391.283 598.213,392.75 C591.297,394.228 584.003,394.961 576.312,394.961 C568.442,394.961 560.938,394.29 553.812,392.949 C546.707,391.618 540.535,389.617 535.327,386.944" fill="#FFFFFF"/>
    <path d="M1101.186,438.852 L1287.247,438.852" fill-opacity="0" stroke="#3FA9F5" stroke-width="5.914"/>
    <path d="M1454.547,434.184 L1446.368,434.184 L1446.368,427.368 L1454.547,427.368 z M1446.368,416.462 L1454.547,416.462 L1454.547,423.278 L1446.368,423.278 z M1446.368,405.556 L1454.547,405.556 L1454.547,411.009 L1446.368,411.009 z M1423.193,364.247 L1423.193,441 L1460,441 L1460,388.74 z" fill="#F2F2F2"/>
    <path d="M1406.834,390.561 L1401.381,390.561 L1401.381,385.108 L1406.834,385.108 z M1406.834,402.83 L1401.381,402.83 L1401.381,397.377 L1406.834,397.377 z M1406.834,415.099 L1401.381,415.099 L1401.381,406.92 L1406.834,406.92 z M1406.834,424.641 L1401.381,424.641 L1401.381,419.188 L1406.834,419.188 z M1395.928,359.206 L1387.749,359.206 L1387.749,352.39 L1395.928,352.39 z M1395.928,370.112 L1387.749,370.112 L1387.749,363.296 L1395.928,363.296 z M1395.928,381.018 L1387.749,381.018 L1387.749,375.565 L1395.928,375.565 z M1395.928,390.561 L1387.749,390.561 L1387.749,385.108 L1395.928,385.108 z M1383.659,441 L1410.924,441 L1410.924,345.574 L1383.659,345.574 z" fill="#F2F2F2"/>
  </g>
</svg>
